<svg xmlns="http://www.w3.org/2000/svg" viewBox="0 0 720 320" role="img" aria-label="EMA Pullback Long">
  <defs>
    <style>
      .bg { fill: #0f1419; }
      .grid { stroke: #1e2a38; stroke-width: 1; }
      .ema-fast { stroke: #3b82f6; stroke-width: 2.5; fill: none; }
      .ema-slow { stroke: #a855f7; stroke-width: 2; fill: none; stroke-dasharray: 5 4; }
      .wick { stroke: #8b9cb3; stroke-width: 2; }
      .bull { fill: #22c55e; stroke: #22c55e; }
      .bear { fill: #ef4444; stroke: #ef4444; }
      .label { fill: #c8d4e0; font: 600 13px Inter, sans-serif; }
      .note { fill: #8b9cb3; font: 12px Inter, sans-serif; }
      .zone { fill: rgba(59,130,246,0.12); stroke: #3b82f6; stroke-width: 1; stroke-dasharray: 4 3; }
      .entry { stroke: #22c55e; stroke-width: 2; }
      .sl { stroke: #ef4444; stroke-width: 2; stroke-dasharray: 4 3; }
    </style>
  </defs>
  <rect class="bg" width="720" height="320"/>
  <line class="grid" x1="40" y1="80" x2="680" y2="80"/>
  <line class="grid" x1="40" y1="160" x2="680" y2="160"/>
  <line class="grid" x1="40" y1="240" x2="680" y2="240"/>
  <!-- EMA slow -->
  <path class="ema-slow" d="M60,220 C120,215 180,205 240,195 300,188 360,182 420,178 480,174 540,170 600,168 660,166"/>
  <text class="label" x="62" y="250">EMA 50 (chŁm)</text>
  <!-- EMA fast -->
  <path class="ema-fast" d="M60,235 C120,225 180,210 240,195 300,180 360,168 420,158 480,150 540,145 600,142 660,140"/>
  <text class="label" x="62" y="132" fill="#3b82f6">EMA 20 (nhanh)  v∙ng pullback</text>
  <!-- pullback zone -->
  <rect class="zone" x="330" y="138" width="90" height="28" rx="4"/>
  <!-- uptrend candles -->
  <line class="wick" x1="100" y1="210" x2="100" y2="170"/><rect class="bull" x="92" y="185" width="16" height="20"/>
  <line class="wick" x1="150" y1="200" x2="150" y2="160"/><rect class="bull" x="142" y="170" width="16" height="25"/>
  <line class="wick" x1="200" y1="190" x2="200" y2="150"/><rect class="bull" x="192" y="160" width="16" height="25"/>
  <line class="wick" x1="250" y1="180" x2="250" y2="140"/><rect class="bull" x="242" y="150" width="16" height="25"/>
  <!-- pullback candle -->
  <line class="wick" x1="370" y1="175" x2="370" y2="145"/><rect class="bull" x="362" y="150" width="16" height="20"/>
  <text class="note" x="300" y="210">Low chĪm EMA20, close trĻn EMA20, n┐n xßc nhŁn tng</text>
  <!-- resume -->
  <line class="wick" x1="430" y1="155" x2="430" y2="120"/><rect class="bull" x="422" y="128" width="16" height="22"/>
  <line class="wick" x1="490" y1="140" x2="490" y2="105"/><rect class="bull" x="482" y="112" width="16" height="22"/>
  <line class="entry" x1="300" y1="170" x2="620" y2="170"/>
  <text class="label" x="625" y="174" fill="#22c55e">Entry</text>
  <line class="sl" x1="300" y1="188" x2="620" y2="188"/>
  <text class="label" x="625" y="192" fill="#ef4444">SL d░█i ßy pullback</text>
  <text class="note" x="60" y="290">i┴u kiŪn: EMA20 &gt; EMA50, xu h░█ng tng xßc nhŁn, spread EMA 350 pips</text>
</svg>
