<svg xmlns="http://www.w3.org/2000/svg" viewBox="0 0 400 620" role="img" aria-label="Inside Bar Breakout Short">
  <defs>
    <marker id="arr-r-ib" markerWidth="8" markerHeight="8" refX="6" refY="3" orient="auto"><path d="M0,0 L8,3 L0,6 Z" fill="#ef4444"/></marker>
  </defs>
  <rect fill="#0f1419" width="400" height="620" rx="8"/>
  <text x="200" y="26" text-anchor="middle" fill="#f1f5f9" font-size="15" font-weight="700">Inside Bar Breakout  SHORT</text>
  <text x="200" y="46" text-anchor="middle" fill="#94a3b8" font-size="11">Trend gi£m í nŅn mĻ + inside bar í break xu—ng</text>
  <rect x="12" y="58" width="376" height="340" rx="8" fill="#121a24" stroke="#2a3548"/>
  <path d="M35,175 C90,190 150,215 210,240 270,265 330,285" fill="none" stroke="#a855f7" stroke-width="2.5" stroke-dasharray="6 4"/>
  <text x="334" y="288" fill="#c4b5fd" font-size="9">EMA50</text>
  <line x1="55" y1="195" x2="55" y2="220" stroke="#8b9cb3" stroke-width="2"/><rect x="48" y="200" width="14" height="14" fill="#ef4444"/>
  <line x1="88" y1="208" x2="88" y2="232" stroke="#8b9cb3" stroke-width="2"/><rect x="81" y="214" width="14" height="13" fill="#ef4444"/>
  <line x1="121" y1="218" x2="121" y2="242" stroke="#8b9cb3" stroke-width="2"/><rect x="114" y="224" width="14" height="13" fill="#ef4444"/>
  <line x1="154" y1="228" x2="154" y2="252" stroke="#8b9cb3" stroke-width="2"/><rect x="147" y="234" width="14" height="13" fill="#ef4444"/>
  <line x1="187" y1="238" x2="187" y2="262" stroke="#8b9cb3" stroke-width="2"/><rect x="180" y="244" width="14" height="13" fill="#ef4444"/>
  <line x1="220" y1="248" x2="220" y2="305" stroke="#8b9cb3" stroke-width="2"/><rect x="213" y="262" width="14" height="38" fill="#ef4444"/>
  <rect x="205" y="248" width="30" height="58" fill="rgba(245,158,11,0.08)" stroke="#f59e0b" stroke-dasharray="4 3" rx="3"/>
  <text x="248" y="262" fill="#fbbf24" font-size="10" font-weight="600">NŅn mĻ</text>
  <line x1="253" y1="268" x2="253" y2="288" stroke="#8b9cb3" stroke-width="2"/><rect x="246" y="272" width="14" height="12" fill="#94a3b8"/>
  <rect x="238" y="268" width="30" height="22" fill="rgba(148,163,184,0.1)" stroke="#94a3b8" stroke-dasharray="3 3" rx="2"/>
  <text x="248" y="302" fill="#94a3b8" font-size="9">Inside bar</text>
  <line x1="286" y1="305" x2="286" y2="335" stroke="#8b9cb3" stroke-width="2"/><rect x="279" y="312" width="14" height="18" fill="#ef4444"/>
  <line x1="28" y1="305" x2="372" y2="305" stroke="#f59e0b" stroke-width="2" stroke-dasharray="7 5"/>
  <text x="32" y="298" fill="#f59e0b" font-size="10" font-weight="600">Mother low</text>
  <line x1="28" y1="248" x2="240" y2="248" stroke="#f59e0b" stroke-width="1" stroke-dasharray="5 4" opacity="0.7"/>
  <text x="32" y="242" fill="#f59e0b" font-size="10">Mother high</text>
  <rect x="268" y="72" width="110" height="36" rx="4" fill="rgba(239,68,68,0.2)" stroke="#ef4444" stroke-width="2"/>
  <text x="323" y="88" text-anchor="middle" fill="#fecaca" font-size="10" font-weight="700">TÕN HI∆U</text>
  <text x="323" y="100" text-anchor="middle" fill="#94a3b8" font-size="9">Close &lt; mother low + EMA</text>
  <path d="M286 335 L286 318" stroke="#ef4444" stroke-width="2" marker-end="url(#arr-r-ib)"/>
  <line x1="250" y1="318" x2="360" y2="318" stroke="#ef4444" stroke-width="2"/><text x="362" y="322" fill="#ef4444" font-size="10">Entry</text>
  <line x1="250" y1="248" x2="360" y2="248" stroke="#f87171" stroke-width="2" stroke-dasharray="5 4"/><text x="362" y="252" fill="#f87171" font-size="10">SL</text>
  <line x1="250" y1="355" x2="360" y2="355" stroke="#22c55e" stroke-width="2" stroke-dasharray="5 4"/><text x="362" y="359" fill="#22c55e" font-size="10">TP</text>
  <rect x="12" y="408" width="376" height="200" rx="8" fill="#151c26" stroke="#2a3548"/>
  <text x="24" y="432" fill="#e2e8f0" font-size="12" font-weight="600">CŠch Õc</text>
  <text x="24" y="452" fill="#94a3b8" font-size="11">1. Xu hįŘng gi£m  close dįŘi EMA trend</text>
  <text x="24" y="470" fill="#94a3b8" font-size="11">2. Inside bar trong nŅn mĻ (nťn)</text>
  <text x="24" y="488" fill="#94a3b8" font-size="11">3. Close phŠ mother low í SHORT t°i close</text>
  <text x="24" y="506" fill="#94a3b8" font-size="11">SL trÍn mother high | TP theo RR</text>
</svg>
