<svg xmlns="http://www.w3.org/2000/svg" viewBox="0 0 400 620" role="img" aria-label="Inside Bar Breakout Long">
  <defs>
    <marker id="arr-g-ib" markerWidth="8" markerHeight="8" refX="6" refY="3" orient="auto"><path d="M0,0 L8,3 L0,6 Z" fill="#22c55e"/></marker>
  </defs>
  <rect fill="#0f1419" width="400" height="620" rx="8"/>
  <text x="200" y="26" text-anchor="middle" fill="#f1f5f9" font-size="15" font-weight="700">Inside Bar Breakout  LONG</text>
  <text x="200" y="46" text-anchor="middle" fill="#94a3b8" font-size="11">Trend tng ’ n¿n m¹ + inside bar ’ break lên</text>
  <rect x="12" y="58" width="376" height="340" rx="8" fill="#121a24" stroke="#2a3548"/>
  <path d="M35,290 C90,275 150,250 210,220 270,195 330,175" fill="none" stroke="#a855f7" stroke-width="2.5" stroke-dasharray="6 4"/>
  <text x="334" y="172" fill="#c4b5fd" font-size="9">EMA50</text>
  <line x1="55" y1="248" x2="55" y2="272" stroke="#8b9cb3" stroke-width="2"/><rect x="48" y="255" width="14" height="12" fill="#22c55e"/>
  <line x1="88" y1="235" x2="88" y2="260" stroke="#8b9cb3" stroke-width="2"/><rect x="81" y="240" width="14" height="14" fill="#22c55e"/>
  <line x1="121" y1="222" x2="121" y2="248" stroke="#8b9cb3" stroke-width="2"/><rect x="114" y="228" width="14" height="14" fill="#22c55e"/>
  <line x1="154" y1="210" x2="154" y2="238" stroke="#8b9cb3" stroke-width="2"/><rect x="147" y="216" width="14" height="16" fill="#22c55e"/>
  <line x1="187" y1="198" x2="187" y2="228" stroke="#8b9cb3" stroke-width="2"/><rect x="180" y="205" width="14" height="17" fill="#22c55e"/>
  <line x1="220" y1="155" x2="220" y2="210" stroke="#8b9cb3" stroke-width="2"/><rect x="213" y="168" width="14" height="38" fill="#22c55e"/>
  <rect x="205" y="155" width="30" height="58" fill="rgba(245,158,11,0.08)" stroke="#f59e0b" stroke-dasharray="4 3" rx="3"/>
  <text x="248" y="168" fill="#fbbf24" font-size="10" font-weight="600">N¿n m¹</text>
  <line x1="253" y1="178" x2="253" y2="198" stroke="#8b9cb3" stroke-width="2"/><rect x="246" y="182" width="14" height="12" fill="#94a3b8"/>
  <rect x="238" y="178" width="30" height="22" fill="rgba(148,163,184,0.1)" stroke="#94a3b8" stroke-dasharray="3 3" rx="2"/>
  <text x="248" y="212" fill="#94a3b8" font-size="9">Inside bar</text>
  <line x1="286" y1="145" x2="286" y2="175" stroke="#8b9cb3" stroke-width="2"/><rect x="279" y="152" width="14" height="18" fill="#22c55e"/>
  <line x1="28" y1="155" x2="372" y2="155" stroke="#f59e0b" stroke-width="2" stroke-dasharray="7 5"/>
  <text x="32" y="148" fill="#f59e0b" font-size="10" font-weight="600">Mother high</text>
  <line x1="28" y1="210" x2="240" y2="210" stroke="#f59e0b" stroke-width="1" stroke-dasharray="5 4" opacity="0.7"/>
  <text x="32" y="218" fill="#f59e0b" font-size="10">Mother low</text>
  <rect x="268" y="72" width="110" height="36" rx="4" fill="rgba(34,197,94,0.25)" stroke="#22c55e" stroke-width="2"/>
  <text x="323" y="88" text-anchor="middle" fill="#bbf7d0" font-size="10" font-weight="700">TÍN HIÆU</text>
  <text x="323" y="100" text-anchor="middle" fill="#94a3b8" font-size="9">Close &gt; mother high + EMA</text>
  <path d="M286 145 L286 158" stroke="#22c55e" stroke-width="2" marker-end="url(#arr-g-ib)"/>
  <line x1="250" y1="168" x2="360" y2="168" stroke="#3b82f6" stroke-width="2"/><text x="362" y="172" fill="#3b82f6" font-size="10">Entry</text>
  <line x1="250" y1="212" x2="360" y2="212" stroke="#ef4444" stroke-width="2" stroke-dasharray="5 4"/><text x="362" y="216" fill="#ef4444" font-size="10">SL</text>
  <line x1="250" y1="125" x2="360" y2="125" stroke="#22c55e" stroke-width="2" stroke-dasharray="5 4"/><text x="362" y="129" fill="#22c55e" font-size="10">TP</text>
  <rect x="12" y="408" width="376" height="200" rx="8" fill="#151c26" stroke="#2a3548"/>
  <text x="24" y="432" fill="#e2e8f0" font-size="12" font-weight="600">Cách Íc</text>
  <text x="24" y="452" fill="#94a3b8" font-size="11">1. N¿n m¹ ç rÙng (motherMinRangePips)</text>
  <text x="24" y="470" fill="#94a3b8" font-size="11">2. N¿n k¿ là inside bar (high/low trong n¿n m¹)</text>
  <text x="24" y="488" fill="#94a3b8" font-size="11">3. Close phá mother high, giá trên EMA trend ’ LONG</text>
  <text x="24" y="506" fill="#94a3b8" font-size="11">SL d°Ûi mother low | TP = entry + RR × risk</text>
  <text x="24" y="530" fill="#64748b" font-size="10">SHORT: Ñi xéng  break mother low d°Ûi EMA</text>
</svg>
