<svg xmlns="http://www.w3.org/2000/svg" viewBox="0 0 720 320" role="img" aria-label="Liquidity Grab Long">
  <defs>
    <style>
      .bg { fill: #0f1419; }
      .grid { stroke: #1e2a38; stroke-width: 1; }
      .level { stroke: #f59e0b; stroke-width: 2; stroke-dasharray: 6 4; }
      .wick { stroke: #8b9cb3; stroke-width: 2; }
      .bull { fill: #22c55e; stroke: #22c55e; }
      .bear { fill: #ef4444; stroke: #ef4444; }
      .label { fill: #c8d4e0; font: 600 13px Inter, sans-serif; }
      .note { fill: #8b9cb3; font: 12px Inter, sans-serif; }
      .grab-zone { fill: rgba(34,197,94,0.15); }
      .entry { stroke: #22c55e; stroke-width: 2; }
      .sl { stroke: #ef4444; stroke-width: 2; stroke-dasharray: 4 3; }
    </style>
  </defs>
  <rect class="bg" width="720" height="320"/>
  <line class="grid" x1="40" y1="80" x2="680" y2="80"/>
  <line class="grid" x1="40" y1="140" x2="680" y2="140"/>
  <line class="grid" x1="40" y1="200" x2="680" y2="200"/>
  <line class="level" x1="60" y1="200" x2="660" y2="200"/>
  <text class="label" x="62" y="192">Swing Low  vůng liquidity (stop sell)</text>
  <rect class="grab-zone" x="280" y="195" width="80" height="45" rx="4"/>
  <line class="wick" x1="120" y1="175" x2="120" y2="215"/><rect class="bear" x="112" y="185" width="16" height="22"/>
  <line class="wick" x1="170" y1="170" x2="170" y2="210"/><rect class="bull" x="162" y="180" width="16" height="22"/>
  <line class="wick" x1="220" y1="168" x2="220" y2="208"/><rect class="bear" x="212" y="178" width="16" height="22"/>
  <line class="wick" x1="320" y1="250" x2="320" y2="165"/><rect class="bull" x="312" y="178" width="16" height="20"/>
  <text class="note" x="350" y="255">Low quét d°Űi level, close quay lˇi tręn level</text>
  <text class="note" x="350" y="272">Râu d°Űi lŰn + nżn tng xác nh­n ’ LONG</text>
  <line class="wick" x1="400" y1="185" x2="400" y2="150"/><rect class="bull" x="392" y="158" width="16" height="22"/>
  <line class="entry" x1="280" y1="198" x2="620" y2="198"/>
  <text class="label" x="625" y="202" fill="#22c55e">Entry LONG</text>
  <line class="sl" x1="280" y1="252" x2="620" y2="252"/>
  <text class="label" x="625" y="256" fill="#ef4444">SL d°Űi áy grab</text>
</svg>
