<svg xmlns="http://www.w3.org/2000/svg" viewBox="0 0 400 620" role="img" aria-label="Pin Bar Rejection Short">
  <rect fill="#0f1419" width="400" height="620" rx="8"/>
  <text x="200" y="26" text-anchor="middle" fill="#f1f5f9" font-size="15" font-weight="700">Pin Bar Rejection  SHORT</text>
  <text x="200" y="46" text-anchor="middle" fill="#94a3b8" font-size="11">Chˇm swing high ’ pin bar râu tręn ’ SHORT</text>
  <rect x="12" y="58" width="376" height="340" rx="8" fill="#121a24" stroke="#2a3548"/>
  <line x1="28" y1="155" x2="372" y2="155" stroke="#f59e0b" stroke-width="2" stroke-dasharray="7 5"/>
  <text x="32" y="148" fill="#f59e0b" font-size="10" font-weight="600">Swing High</text>
  <line x1="55" y1="168" x2="55" y2="192" stroke="#8b9cb3" stroke-width="2"/><rect x="48" y="175" width="14" height="13" fill="#22c55e"/>
  <line x1="88" y1="165" x2="88" y2="188" stroke="#8b9cb3" stroke-width="2"/><rect x="81" y="170" width="14" height="12" fill="#ef4444"/>
  <line x1="121" y1="168" x2="121" y2="190" stroke="#8b9cb3" stroke-width="2"/><rect x="114" y="172" width="14" height="13" fill="#22c55e"/>
  <line x1="154" y1="162" x2="154" y2="185" stroke="#8b9cb3" stroke-width="2"/><rect x="147" y="168" width="14" height="12" fill="#ef4444"/>
  <line x1="187" y1="165" x2="187" y2="188" stroke="#8b9cb3" stroke-width="2"/><rect x="180" y="170" width="14" height="13" fill="#22c55e"/>
  <line x1="220" y1="118" x2="220" y2="188" stroke="#8b9cb3" stroke-width="2"/>
  <rect x="213" y="158" width="14" height="22" fill="#ef4444"/>
  <rect x="200" y="118" width="40" height="42" fill="rgba(239,68,68,0.12)" stroke="#ef4444" stroke-dasharray="3 3" rx="3"/>
  <text x="248" y="132" fill="#fca5a5" font-size="10">Râu tręn dŕi (pin)</text>
  <text x="248" y="148" fill="#94a3b8" font-size="9">Thân nhĎ + nżn giŁm</text>
  <text x="248" y="164" fill="#94a3b8" font-size="9">Chˇm vůng swing  không c§n quét</text>
  <line x1="258" y1="172" x2="258" y2="195" stroke="#8b9cb3" stroke-width="2"/><rect x="251" y="178" width="14" height="12" fill="#ef4444"/>
  <line x1="291" y1="185" x2="291" y2="208" stroke="#8b9cb3" stroke-width="2"/><rect x="284" y="190" width="14" height="13" fill="#ef4444"/>
  <line x1="324" y1="198" x2="324" y2="220" stroke="#8b9cb3" stroke-width="2"/><rect x="317" y="203" width="14" height="12" fill="#ef4444"/>
  <rect x="188" y="72" width="120" height="36" rx="4" fill="rgba(239,68,68,0.2)" stroke="#ef4444" stroke-width="2"/>
  <text x="248" y="88" text-anchor="middle" fill="#fecaca" font-size="10" font-weight="700">TÍN HIĆU SHORT</text>
  <text x="248" y="100" text-anchor="middle" fill="#94a3b8" font-size="9">Entry tˇi close pin bar</text>
  <line x1="200" y1="182" x2="360" y2="182" stroke="#ef4444" stroke-width="2"/><text x="362" y="186" fill="#ef4444" font-size="10">Entry</text>
  <line x1="200" y1="118" x2="360" y2="118" stroke="#f87171" stroke-width="2" stroke-dasharray="5 4"/><text x="362" y="122" fill="#f87171" font-size="10">SL</text>
  <line x1="200" y1="235" x2="360" y2="235" stroke="#22c55e" stroke-width="2" stroke-dasharray="5 4"/><text x="362" y="239" fill="#22c55e" font-size="10">TP</text>
  <rect x="12" y="408" width="376" height="200" rx="8" fill="#151c26" stroke="#2a3548"/>
  <text x="24" y="432" fill="#e2e8f0" font-size="12" font-weight="600">Khác Liquidity Grab</text>
  <text x="24" y="452" fill="#94a3b8" font-size="11">" ChÉ c§n chˇm swing zone (retestTolerancePips)</text>
  <text x="24" y="470" fill="#94a3b8" font-size="11">" Không bŻt buŮc quét v°ăt swing + grabPips</text>
  <text x="24" y="488" fill="#94a3b8" font-size="11">" Wick e minWickRatio, body d maxBodyRatio</text>
  <text x="24" y="506" fill="#94a3b8" font-size="11">" Nżn xác nh­n giŁm ’ SHORT ngay</text>
</svg>
