<svg xmlns="http://www.w3.org/2000/svg" viewBox="0 0 800 450" role="img" aria-label="V˝ tranh nhóm">
  <defs>
    <linearGradient id="paper" x1="0" y1="0" x2="1" y2="1">
      <stop offset="0%" stop-color="#FFFEF5"/>
      <stop offset="100%" stop-color="#FFF8DC"/>
    </linearGradient>
  </defs>
  <rect width="800" height="450" fill="#F0E6D3"/>
  <!-- Big poster paper -->
  <rect x="150" y="60" width="500" height="300" rx="4" fill="url(#paper)" stroke="#CCC" stroke-width="2"/>
  <!-- Bird drawing -->
  <ellipse cx="400" cy="200" rx="45" ry="35" fill="#5B8DEF"/>
  <circle cx="430" cy="185" r="18" fill="#5B8DEF"/>
  <circle cx="438" cy="182" r="4" fill="#333"/>
  <polygon points="455,185 480,175 455,195" fill="#F4A460"/>
  <path d="M355 200 Q320 170 300 190 Q330 210 355 200" fill="#4A90D9"/>
  <path d="M355 210 Q300 240 280 220" stroke="#4A90D9" stroke-width="3" fill="none"/>
  <!-- Clouds by Minh -->
  <ellipse cx="320" cy="120" rx="40" ry="22" fill="#E8F4FC" stroke="#B0D4F1" stroke-width="2"/>
  <ellipse cx="350" cy="115" rx="30" ry="18" fill="#E8F4FC" stroke="#B0D4F1" stroke-width="2"/>
  <ellipse cx="480" cy="130" rx="35" ry="20" fill="#E8F4FC" stroke="#B0D4F1" stroke-width="2"/>
  <!-- Three kids around table -->
  <circle cx="120" cy="350" r="24" fill="#FDDCB5"/>
  <path d="M95 378 Q120 400 145 378" fill="#8090C0"/>
  <circle cx="400" cy="355" r="24" fill="#FDDCB5"/>
  <path d="M375 383 Q400 405 425 383" fill="#70C090"/>
  <circle cx="680" cy="350" r="24" fill="#FDDCB5"/>
  <path d="M655 378 Q680 400 705 378" fill="#5B8DEF"/>
  <!-- Pencils -->
  <rect x="200" y="330" width="60" height="6" rx="2" fill="#FFD93D" transform="rotate(-20 230 333)"/>
  <rect x="500" y="328" width="60" height="6" rx="2" fill="#FF6B6B" transform="rotate(15 530 331)"/>
  <rect x="350" y="335" width="60" height="6" rx="2" fill="#4ECDC4" transform="rotate(-5 380 338)"/>
  <rect x="20" y="20" width="260" height="55" rx="8" fill="#FFF" stroke="#70C090" stroke-width="3"/>
  <text x="40" y="52" font-family="Georgia, serif" font-size="17" fill="#408060">Ba cây bút  mŮt chú chim</text>
</svg>
