<svg xmlns="http://www.w3.org/2000/svg" viewBox="0 0 800 450" role="img" aria-label="Lop hoc buoi sang">
  <defs>
    <linearGradient id="sky" x1="0" y1="0" x2="0" y2="1">
      <stop offset="0%" stop-color="#87CEEB"/>
      <stop offset="100%" stop-color="#E8F4FC"/>
    </linearGradient>
    <linearGradient id="floor" x1="0" y1="0" x2="0" y2="1">
      <stop offset="0%" stop-color="#F5E6C8"/>
      <stop offset="100%" stop-color="#E8D4A8"/>
    </linearGradient>
    <filter id="soft"><feGaussianBlur stdDeviation="1.5"/></filter>
  </defs>
  <rect width="800" height="450" fill="url(#sky)"/>
  <rect y="320" width="800" height="130" fill="url(#floor)"/>
  <!-- Windows -->
  <rect x="60" y="40" width="140" height="100" rx="4" fill="#FFF9E6" stroke="#8B7355" stroke-width="3"/>
  <rect x="600" y="40" width="140" height="100" rx="4" fill="#FFF9E6" stroke="#8B7355" stroke-width="3"/>
  <line x1="130" y1="40" x2="130" y2="140" stroke="#8B7355" stroke-width="2"/>
  <line x1="670" y1="40" x2="670" y2="140" stroke="#8B7355" stroke-width="2"/>
  <!-- Sun rays -->
  <circle cx="700" cy="80" r="35" fill="#FFD93D" opacity="0.9"/>
  <g stroke="#FFD93D" stroke-width="3" opacity="0.5">
    <line x1="700" y1="30" x2="700" y2="10"/><line x1="740" y1="50" x2="755" y2="35"/>
    <line x1="750" y1="80" x2="770" y2="80"/><line x1="660" y1="50" x2="645" y2="35"/>
  </g>
  <!-- Desks row -->
  <g fill="#C49A6C" stroke="#8B6914" stroke-width="2">
    <rect x="80" y="260" width="100" height="60" rx="3"/><rect x="220" y="260" width="100" height="60" rx="3"/>
    <rect x="360" y="260" width="100" height="60" rx="3"/><rect x="500" y="260" width="100" height="60" rx="3"/>
  </g>
  <!-- Empty desk highlight -->
  <rect x="620" y="255" width="110" height="68" rx="4" fill="none" stroke="#E879A0" stroke-width="3" stroke-dasharray="8 4"/>
  <rect x="630" y="265" width="100" height="60" rx="3" fill="#D4A574" stroke="#8B6914" stroke-width="2"/>
  <!-- An alone -->
  <circle cx="680" cy="230" r="22" fill="#FDDCB5"/>
  <path d="M655 255 Q680 275 705 255" fill="#5B8DEF"/>
  <ellipse cx="680" cy="218" rx="24" ry="14" fill="#4A3728"/>
  <circle cx="673" cy="228" r="3" fill="#333"/><circle cx="687" cy="228" r="3" fill="#333"/>
  <!-- Other kids chatting -->
  <circle cx="200" cy="235" r="18" fill="#FDDCB5"/>
  <path d="M180 258 Q200 275 220 258" fill="#70C090"/>
  <circle cx="250" cy="238" r="16" fill="#FDDCB5"/>
  <path d="M235 258 Q250 272 265 258" fill="#E879A0"/>
  <!-- Comic caption box -->
  <rect x="20" y="360" width="280" height="70" rx="8" fill="#FFF" stroke="#333" stroke-width="3"/>
  <text x="40" y="395" font-family="Georgia, serif" font-size="18" fill="#333">Sang thu Hai...</text>
  <text x="40" y="418" font-family="sans-serif" font-size="14" fill="#666">Co them mot ban o cuoi lop</text>
</svg>
