<svg xmlns="http://www.w3.org/2000/svg" viewBox="0 0 800 450" role="img" aria-label="K¿t thúc vui v»">
  <defs>
    <linearGradient id="sunset" x1="0" y1="0" x2="0" y2="1">
      <stop offset="0%" stop-color="#FF9A6C"/>
      <stop offset="40%" stop-color="#FFB88C"/>
      <stop offset="100%" stop-color="#5CB87A"/>
    </linearGradient>
  </defs>
  <rect width="800" height="450" fill="url(#sunset)"/>
  <!-- School building silhouette -->
  <rect x="250" y="180" width="300" height="150" fill="#8B6914" opacity="0.3"/>
  <polygon points="400,120 250,180 550,180" fill="#8B6914" opacity="0.35"/>
  <!-- Ground -->
  <ellipse cx="400" cy="420" rx="450" ry="60" fill="#5A9E38" opacity="0.7"/>
  <!-- Three friends together -->
  <circle cx="320" cy="280" r="28" fill="#FDDCB5"/>
  <path d="M290 312 Q320 340 350 312" fill="#70C090"/>
  <circle cx="400" cy="275" r="28" fill="#FDDCB5"/>
  <path d="M370 307 Q400 335 430 307" fill="#5B8DEF"/>
  <circle cx="480" cy="280" r="28" fill="#FDDCB5"/>
  <path d="M450 312 Q480 340 510 312" fill="#8090C0"/>
  <!-- Arms around shoulders -->
  <path d="M348 300 Q370 290 372 305" stroke="#70C090" stroke-width="5" fill="none" stroke-linecap="round"/>
  <path d="M428 305 Q450 290 452 300" stroke="#5B8DEF" stroke-width="5" fill="none" stroke-linecap="round"/>
  <!-- Hearts / sparkles -->
  <text x="300" y="220" font-size="24" fill="#E879A0">&</text>
  <text x="450" y="210" font-size="20" fill="#FFD93D">&</text>
  <text x="380" y="195" font-size="18" fill="#FFF">e</text>
  <!-- Caption -->
  <rect x="180" y="360" width="440" height="75" rx="12" fill="#FFF" stroke="#D4A853" stroke-width="3"/>
  <text x="220" y="395" font-family="Georgia, serif" font-size="20" fill="#8B6914" text-anchor="middle">Chi¿c gh¿ không c̣n trÑng</text>
  <text x="400" y="420" font-family="sans-serif" font-size="14" fill="#888" text-anchor="middle">T́nh b¡n ç rÙng Ă mß cía</text>
</svg>
