<?xml version="1.0" encoding="UTF-8"?>
<svg xmlns="http://www.w3.org/2000/svg" viewBox="0 0 800 450" role="img" aria-label="Kết thúc vui vẻ">
  <defs><linearGradient id="sunset" x1="0" y1="0" x2="0" y2="1"><stop offset="0%" stop-color="#FF9A6C"/><stop offset="40%" stop-color="#FFB88C"/><stop offset="100%" stop-color="#5CB87A"/></linearGradient></defs>
  <rect width="800" height="450" fill="url(#sunset)"/>
  <rect x="250" y="180" width="300" height="150" fill="#8B6914" opacity="0.3"/>
  <polygon points="400,120 250,180 550,180" fill="#8B6914" opacity="0.35"/>
  <ellipse cx="400" cy="420" rx="450" ry="60" fill="#5A9E38" opacity="0.7"/>
  <circle cx="320" cy="280" r="28" fill="#FDDCB5"/><path d="M290 312 Q320 340 350 312" fill="#70C090"/>
  <circle cx="400" cy="275" r="28" fill="#FDDCB5"/><path d="M370 307 Q400 335 430 307" fill="#5B8DEF"/>
  <circle cx="480" cy="280" r="28" fill="#FDDCB5"/><path d="M450 312 Q480 340 510 312" fill="#8090C0"/>
  <path d="M348 300 Q370 290 372 305" stroke="#70C090" stroke-width="5" fill="none" stroke-linecap="round"/>
  <path d="M428 305 Q450 290 452 300" stroke="#5B8DEF" stroke-width="5" fill="none" stroke-linecap="round"/>
  <text x="300" y="220" font-size="24" fill="#E879A0">&#10024;</text>
  <text x="450" y="210" font-size="20" fill="#FFD93D">&#10024;</text>
  <text x="380" y="195" font-size="18" fill="#FFF">&#9829;</text>
</svg>