<?xml version="1.0" encoding="UTF-8"?>
<svg xmlns="http://www.w3.org/2000/svg" viewBox="0 0 800 450" role="img" aria-label="Giờ ăn trưa">
  <defs><linearGradient id="wall" x1="0" y1="0" x2="0" y2="1"><stop offset="0%" stop-color="#FFF5E6"/><stop offset="100%" stop-color="#FFE4C4"/></linearGradient></defs>
  <rect width="800" height="450" fill="url(#wall)"/>
  <rect x="100" y="200" width="200" height="120" rx="6" fill="#DEB887" stroke="#8B6914" stroke-width="2"/>
  <rect x="500" y="200" width="200" height="120" rx="6" fill="#DEB887" stroke="#8B6914" stroke-width="2"/>
  <rect x="140" y="230" width="50" height="35" rx="4" fill="#FF6B6B"/>
  <rect x="200" y="235" width="45" height="30" rx="4" fill="#4ECDC4"/>
  <rect x="540" y="230" width="50" height="35" rx="4" fill="#FFD93D"/>
  <circle cx="180" cy="175" r="22" fill="#FDDCB5"/><path d="M155 200 Q180 220 205 200" fill="#70C090"/>
  <ellipse cx="250" cy="180" rx="20" ry="22" fill="#FDDCB5"/><path d="M230 205 Q250 222 270 205" fill="#5B8DEF"/>
  <ellipse cx="215" cy="130" rx="75" ry="35" fill="#FFF" stroke="#333" stroke-width="2"/>
  <text x="155" y="125" font-family="Be Vietnam Pro, Segoe UI, Tahoma, sans-serif" font-size="13" fill="#555">Sao cậu nói</text>
  <text x="155" y="142" font-family="Be Vietnam Pro, Segoe UI, Tahoma, sans-serif" font-size="13" fill="#555">chuyện với cậu ta?</text>
  <circle cx="600" cy="175" r="18" fill="#FDDCB5"/><path d="M585 198 Q600 212 615 198" fill="#8090C0"/>
  <rect width="800" height="450" fill="#9B72CF" opacity="0.08"/>
</svg>