<?xml version="1.0" encoding="UTF-8"?>
<svg xmlns="http://www.w3.org/2000/svg" viewBox="0 0 800 450" role="img" aria-label="Sân chơi trường học">
  <defs>
    <linearGradient id="grass" x1="0" y1="0" x2="0" y2="1"><stop offset="0%" stop-color="#7EC850"/><stop offset="100%" stop-color="#5A9E38"/></linearGradient>
    <linearGradient id="sky2" x1="0" y1="0" x2="1" y2="1"><stop offset="0%" stop-color="#6BB5FF"/><stop offset="100%" stop-color="#B8E0FF"/></linearGradient>
  </defs>
  <rect width="800" height="450" fill="url(#sky2)"/>
  <ellipse cx="400" cy="480" rx="500" ry="120" fill="url(#grass)"/>
  <path d="M120 280 L200 120 L220 120 L160 280 Z" fill="#FF6B6B"/>
  <rect x="115" y="275" width="90" height="15" rx="3" fill="#CC5555"/>
  <line x1="350" y1="80" x2="350" y2="200" stroke="#8B6914" stroke-width="4"/>
  <line x1="450" y1="80" x2="450" y2="200" stroke="#8B6914" stroke-width="4"/>
  <line x1="330" y1="80" x2="470" y2="80" stroke="#8B6914" stroke-width="5"/>
  <rect x="320" y="170" width="60" height="8" rx="2" fill="#D4A853"/>
  <rect x="420" y="170" width="60" height="8" rx="2" fill="#D4A853"/>
  <circle cx="380" cy="210" r="20" fill="#FDDCB5"/><path d="M360 232 Q380 250 400 232" fill="#70C090"/>
  <circle cx="420" cy="215" r="18" fill="#FDDCB5"/><path d="M405 235 Q420 248 435 235" fill="#5B8DEF"/>
  <path d="M400 220 L440 200" stroke="#70C090" stroke-width="4" stroke-linecap="round"/>
  <rect x="580" y="250" width="140" height="12" rx="4" fill="#8B6914"/>
  <rect x="590" y="262" width="8" height="40" fill="#6B4423"/><rect x="702" y="262" width="8" height="40" fill="#6B4423"/>
  <circle cx="650" cy="235" r="20" fill="#FDDCB5"/><path d="M630 258 Q650 275 670 258" fill="#8090C0"/>
  <rect x="638" y="248" width="24" height="30" rx="2" fill="#FFF8DC" stroke="#CCC" stroke-width="1"/>
  <ellipse cx="520" cy="160" rx="90" ry="45" fill="#FFF" stroke="#333" stroke-width="2"/>
  <polygon points="500,200 480,230 520,210" fill="#FFF" stroke="#333" stroke-width="2"/>
  <text x="438" y="152" font-family="Be Vietnam Pro, Segoe UI, Tahoma, sans-serif" font-size="14" fill="#333">Hai đứa mình</text>
  <text x="438" y="172" font-family="Be Vietnam Pro, Segoe UI, Tahoma, sans-serif" font-size="14" fill="#333">chơi với nhau!</text>
</svg>