<svg xmlns="http://www.w3.org/2000/svg" viewBox="0 0 400 620" role="img" aria-label="Pin Bar Rejection Long">
  <rect fill="#0f1419" width="400" height="620" rx="8"/>
  <text x="200" y="26" text-anchor="middle" fill="#f1f5f9" font-size="15" font-weight="700">Pin Bar Rejection  LONG</text>
  <text x="200" y="46" text-anchor="middle" fill="#94a3b8" font-size="11">Chˇm swing low ’ pin bar râu d°Űi ’ LONG</text>
  <rect x="12" y="58" width="376" height="340" rx="8" fill="#121a24" stroke="#2a3548"/>
  <line x1="28" y1="245" x2="372" y2="245" stroke="#f59e0b" stroke-width="2" stroke-dasharray="7 5"/>
  <text x="32" y="238" fill="#f59e0b" font-size="10" font-weight="600">Swing Low</text>
  <line x1="55" y1="198" x2="55" y2="222" stroke="#8b9cb3" stroke-width="2"/><rect x="48" y="203" width="14" height="14" fill="#ef4444"/>
  <line x1="88" y1="200" x2="88" y2="225" stroke="#8b9cb3" stroke-width="2"/><rect x="81" y="205" width="14" height="15" fill="#22c55e"/>
  <line x1="121" y1="202" x2="121" y2="226" stroke="#8b9cb3" stroke-width="2"/><rect x="114" y="207" width="14" height="14" fill="#ef4444"/>
  <line x1="154" y1="205" x2="154" y2="228" stroke="#8b9cb3" stroke-width="2"/><rect x="147" y="210" width="14" height="13" fill="#22c55e"/>
  <line x1="187" y1="208" x2="187" y2="230" stroke="#8b9cb3" stroke-width="2"/><rect x="180" y="213" width="14" height="12" fill="#ef4444"/>
  <line x1="220" y1="268" x2="220" y2="198" stroke="#8b9cb3" stroke-width="2"/>
  <rect x="213" y="228" width="14" height="22" fill="#22c55e"/>
  <rect x="200" y="255" width="40" height="45" fill="rgba(34,197,94,0.12)" stroke="#22c55e" stroke-dasharray="3 3" rx="3"/>
  <text x="248" y="272" fill="#86efac" font-size="10">Râu d°Űi dŕi (hammer)</text>
  <text x="248" y="288" fill="#94a3b8" font-size="9">Thân nhĎ + nżn tng xác nh­n</text>
  <text x="248" y="304" fill="#94a3b8" font-size="9">Chˇm vůng h× tră swing low</text>
  <line x1="258" y1="198" x2="258" y2="222" stroke="#8b9cb3" stroke-width="2"/><rect x="251" y="203" width="14" height="14" fill="#22c55e"/>
  <line x1="291" y1="185" x2="291" y2="208" stroke="#8b9cb3" stroke-width="2"/><rect x="284" y="190" width="14" height="13" fill="#22c55e"/>
  <line x1="324" y1="172" x2="324" y2="195" stroke="#8b9cb3" stroke-width="2"/><rect x="317" y="177" width="14" height="13" fill="#22c55e"/>
  <rect x="188" y="72" width="110" height="36" rx="4" fill="rgba(34,197,94,0.2)" stroke="#22c55e" stroke-width="2"/>
  <text x="243" y="88" text-anchor="middle" fill="#bbf7d0" font-size="10" font-weight="700">TÍN HIĆU LONG</text>
  <text x="243" y="100" text-anchor="middle" fill="#94a3b8" font-size="9">Entry tˇi close pin bar</text>
  <line x1="200" y1="228" x2="360" y2="228" stroke="#22c55e" stroke-width="2"/><text x="362" y="232" fill="#22c55e" font-size="10">Entry</text>
  <line x1="200" y1="272" x2="360" y2="272" stroke="#ef4444" stroke-width="2" stroke-dasharray="5 4"/><text x="362" y="276" fill="#ef4444" font-size="10">SL</text>
  <line x1="200" y1="175" x2="360" y2="175" stroke="#22c55e" stroke-width="2" stroke-dasharray="5 4"/><text x="362" y="179" fill="#22c55e" font-size="10">TP</text>
  <rect x="12" y="408" width="376" height="200" rx="8" fill="#151c26" stroke="#2a3548"/>
  <text x="24" y="432" fill="#e2e8f0" font-size="12" font-weight="600">iÁu kiÇn LONG</text>
  <text x="24" y="452" fill="#94a3b8" font-size="11">1. Giá chˇm vůng swing low ± tolerance</text>
  <text x="24" y="470" fill="#94a3b8" font-size="11">2. Râu d°Űi e minWickRatio, thân d maxBodyRatio</text>
  <text x="24" y="488" fill="#94a3b8" font-size="11">3. Nżn xác nh­n tng (close tręn 40% range)</text>
  <text x="24" y="506" fill="#94a3b8" font-size="11">4. SL d°Űi uôi pin + buffer | TP theo RR</text>
</svg>
